<svg width="610" height="145" viewBox="0 0 610 145" fill="none" xmlns="http://www.w3.org/2000/svg">
<path d="M13.784 47V8.792H0.728V2.2H35.096V8.792H21.976V47H13.784ZM40.9725 47V0.919998H49.1645V20.12C50.2312 18.3707 51.6605 17.0053 53.4525 16.024C55.2872 15 57.3778 14.488 59.7245 14.488C63.6498 14.488 66.6792 15.7253 68.8125 18.2C70.9885 20.6747 72.0765 24.3013 72.0765 29.08V47H63.9485V29.848C63.9485 27.1173 63.3938 25.0267 62.2845 23.576C61.2178 22.1253 59.5112 21.4 57.1645 21.4C54.8605 21.4 52.9405 22.2107 51.4045 23.832C49.9112 25.4533 49.1645 27.7147 49.1645 30.616V47H40.9725ZM79.91 47V15.256H87.206L87.974 21.208C89.126 19.16 90.6833 17.5387 92.646 16.344C94.6513 15.1067 96.998 14.488 99.686 14.488V23.128H97.382C95.59 23.128 93.99 23.4053 92.582 23.96C91.174 24.5147 90.0647 25.4747 89.254 26.84C88.486 28.2053 88.102 30.104 88.102 32.536V47H79.91ZM109.701 10.328C108.208 10.328 106.97 9.88 105.989 8.984C105.05 8.088 104.581 6.95733 104.581 5.592C104.581 4.22667 105.05 3.11733 105.989 2.264C106.97 1.368 108.208 0.919998 109.701 0.919998C111.194 0.919998 112.41 1.368 113.349 2.264C114.33 3.11733 114.821 4.22667 114.821 5.592C114.821 6.95733 114.33 8.088 113.349 8.984C112.41 9.88 111.194 10.328 109.701 10.328ZM105.605 47V15.256H113.797V47H105.605ZM130.924 47L119.276 15.256H127.852L135.916 39.256L143.98 15.256H152.556L140.844 47H130.924ZM162.139 10.328C160.645 10.328 159.408 9.88 158.427 8.984C157.488 8.088 157.019 6.95733 157.019 5.592C157.019 4.22667 157.488 3.11733 158.427 2.264C159.408 1.368 160.645 0.919998 162.139 0.919998C163.632 0.919998 164.848 1.368 165.787 2.264C166.768 3.11733 167.259 4.22667 167.259 5.592C167.259 6.95733 166.768 8.088 165.787 8.984C164.848 9.88 163.632 10.328 162.139 10.328ZM158.043 47V15.256H166.235V47H158.043ZM174.785 47V15.256H182.017L182.657 20.632C183.638 18.7547 185.046 17.2613 186.881 16.152C188.758 15.0427 190.956 14.488 193.473 14.488C197.398 14.488 200.449 15.7253 202.625 18.2C204.801 20.6747 205.889 24.3013 205.889 29.08V47H197.697V29.848C197.697 27.1173 197.142 25.0267 196.033 23.576C194.924 22.1253 193.196 21.4 190.849 21.4C188.545 21.4 186.646 22.2107 185.153 23.832C183.702 25.4533 182.977 27.7147 182.977 30.616V47H174.785ZM227.163 37.528C225.627 37.528 224.197 37.3573 222.875 37.016L220.507 39.384C221.232 39.768 222.213 40.088 223.451 40.344C224.688 40.6 226.693 40.856 229.467 41.112C233.691 41.496 236.763 42.4987 238.683 44.12C240.603 45.7413 241.562 47.9813 241.562 50.84C241.562 52.7173 241.051 54.488 240.027 56.152C239.003 57.8587 237.424 59.224 235.291 60.248C233.157 61.3147 230.427 61.848 227.099 61.848C222.576 61.848 218.928 60.9947 216.155 59.288C213.381 57.624 211.995 55.1067 211.995 51.736C211.995 48.8773 213.381 46.4027 216.155 44.312C215.301 43.928 214.555 43.5227 213.915 43.096C213.317 42.6693 212.784 42.2213 212.315 41.752V40.28L217.883 34.392C215.408 32.216 214.171 29.4213 214.171 26.008C214.171 23.8747 214.683 21.9333 215.707 20.184C216.773 18.4347 218.267 17.048 220.187 16.024C222.107 15 224.432 14.488 227.163 14.488C228.955 14.488 230.619 14.744 232.155 15.256H244.187V20.248L238.747 20.632C239.6 22.2533 240.027 24.0453 240.027 26.008C240.027 28.1413 239.515 30.0827 238.491 31.832C237.467 33.5813 235.973 34.968 234.011 35.992C232.091 37.016 229.808 37.528 227.163 37.528ZM227.163 31.256C228.827 31.256 230.192 30.808 231.259 29.912C232.368 29.016 232.923 27.736 232.923 26.072C232.923 24.408 232.368 23.128 231.259 22.232C230.192 21.336 228.827 20.888 227.163 20.888C225.413 20.888 224.005 21.336 222.939 22.232C221.872 23.128 221.339 24.408 221.339 26.072C221.339 27.736 221.872 29.016 222.939 29.912C224.005 30.808 225.413 31.256 227.163 31.256ZM219.483 50.904C219.483 52.4827 220.208 53.656 221.659 54.424C223.152 55.2347 224.965 55.64 227.099 55.64C229.147 55.64 230.811 55.2133 232.091 54.36C233.371 53.5493 234.011 52.44 234.011 51.032C234.011 49.88 233.584 48.92 232.731 48.152C231.92 47.384 230.277 46.9147 227.803 46.744C226.053 46.616 224.432 46.424 222.939 46.168C221.701 46.8507 220.805 47.5973 220.251 48.408C219.739 49.2187 219.483 50.0507 219.483 50.904ZM279.554 47C276.226 47 273.559 46.1893 271.554 44.568C269.549 42.9467 268.546 40.0667 268.546 35.928V22.104H263.106V15.256H268.546L269.506 6.744H276.738V15.256H285.314V22.104H276.738V35.992C276.738 37.528 277.058 38.5947 277.698 39.192C278.381 39.7467 279.533 40.024 281.154 40.024H285.122V47H279.554ZM306.767 47.768C303.695 47.768 300.922 47.064 298.447 45.656C296.015 44.248 294.074 42.3067 292.623 39.832C291.215 37.3147 290.511 34.4133 290.511 31.128C290.511 27.8427 291.236 24.9627 292.687 22.488C294.138 19.9707 296.079 18.008 298.511 16.6C300.986 15.192 303.759 14.488 306.831 14.488C309.86 14.488 312.591 15.192 315.023 16.6C317.498 18.008 319.439 19.9707 320.847 22.488C322.298 24.9627 323.023 27.8427 323.023 31.128C323.023 34.4133 322.298 37.3147 320.847 39.832C319.439 42.3067 317.498 44.248 315.023 45.656C312.548 47.064 309.796 47.768 306.767 47.768ZM306.767 40.664C308.9 40.664 310.756 39.8747 312.335 38.296C313.914 36.6747 314.703 34.2853 314.703 31.128C314.703 27.9707 313.914 25.6027 312.335 24.024C310.756 22.4027 308.922 21.592 306.831 21.592C304.655 21.592 302.778 22.4027 301.199 24.024C299.663 25.6027 298.895 27.9707 298.895 31.128C298.895 34.2853 299.663 36.6747 301.199 38.296C302.778 39.8747 304.634 40.664 306.767 40.664ZM359.038 37.528C357.502 37.528 356.072 37.3573 354.75 37.016L352.382 39.384C353.107 39.768 354.088 40.088 355.326 40.344C356.563 40.6 358.568 40.856 361.342 41.112C365.566 41.496 368.638 42.4987 370.558 44.12C372.478 45.7413 373.438 47.9813 373.438 50.84C373.438 52.7173 372.926 54.488 371.902 56.152C370.878 57.8587 369.299 59.224 367.166 60.248C365.032 61.3147 362.302 61.848 358.974 61.848C354.451 61.848 350.803 60.9947 348.03 59.288C345.256 57.624 343.87 55.1067 343.87 51.736C343.87 48.8773 345.256 46.4027 348.03 44.312C347.176 43.928 346.43 43.5227 345.79 43.096C345.192 42.6693 344.659 42.2213 344.19 41.752V40.28L349.758 34.392C347.283 32.216 346.046 29.4213 346.046 26.008C346.046 23.8747 346.558 21.9333 347.582 20.184C348.648 18.4347 350.142 17.048 352.062 16.024C353.982 15 356.307 14.488 359.038 14.488C360.83 14.488 362.494 14.744 364.03 15.256H376.062V20.248L370.622 20.632C371.475 22.2533 371.902 24.0453 371.902 26.008C371.902 28.1413 371.39 30.0827 370.366 31.832C369.342 33.5813 367.848 34.968 365.886 35.992C363.966 37.016 361.683 37.528 359.038 37.528ZM359.038 31.256C360.702 31.256 362.067 30.808 363.134 29.912C364.243 29.016 364.798 27.736 364.798 26.072C364.798 24.408 364.243 23.128 363.134 22.232C362.067 21.336 360.702 20.888 359.038 20.888C357.288 20.888 355.88 21.336 354.814 22.232C353.747 23.128 353.214 24.408 353.214 26.072C353.214 27.736 353.747 29.016 354.814 29.912C355.88 30.808 357.288 31.256 359.038 31.256ZM351.358 50.904C351.358 52.4827 352.083 53.656 353.534 54.424C355.027 55.2347 356.84 55.64 358.974 55.64C361.022 55.64 362.686 55.2133 363.966 54.36C365.246 53.5493 365.886 52.44 365.886 51.032C365.886 49.88 365.459 48.92 364.606 48.152C363.795 47.384 362.152 46.9147 359.678 46.744C357.928 46.616 356.307 46.424 354.814 46.168C353.576 46.8507 352.68 47.5973 352.126 48.408C351.614 49.2187 351.358 50.0507 351.358 50.904ZM386.451 10.328C384.958 10.328 383.72 9.88 382.739 8.984C381.8 8.088 381.331 6.95733 381.331 5.592C381.331 4.22667 381.8 3.11733 382.739 2.264C383.72 1.368 384.958 0.919998 386.451 0.919998C387.944 0.919998 389.16 1.368 390.099 2.264C391.08 3.11733 391.571 4.22667 391.571 5.592C391.571 6.95733 391.08 8.088 390.099 8.984C389.16 9.88 387.944 10.328 386.451 10.328ZM382.355 47V15.256H390.547V47H382.355ZM407.674 47L396.026 15.256H404.602L412.666 39.256L420.73 15.256H429.306L417.594 47H407.674ZM448.334 47.768C445.134 47.768 442.297 47.0853 439.822 45.72C437.347 44.3547 435.406 42.4347 433.998 39.96C432.59 37.4853 431.886 34.6267 431.886 31.384C431.886 28.0987 432.569 25.176 433.934 22.616C435.342 20.056 437.262 18.072 439.694 16.664C442.169 15.2133 445.07 14.488 448.398 14.488C451.513 14.488 454.265 15.1707 456.654 16.536C459.043 17.9013 460.899 19.7787 462.222 22.168C463.587 24.5147 464.27 27.1387 464.27 30.04C464.27 30.5093 464.249 31 464.206 31.512C464.206 32.024 464.185 32.5573 464.142 33.112H440.014C440.185 35.5867 441.038 37.528 442.574 38.936C444.153 40.344 446.051 41.048 448.27 41.048C449.934 41.048 451.321 40.6853 452.43 39.96C453.582 39.192 454.435 38.2107 454.99 37.016H463.31C462.713 39.0213 461.71 40.856 460.302 42.52C458.937 44.1413 457.23 45.4213 455.182 46.36C453.177 47.2987 450.894 47.768 448.334 47.768ZM448.398 21.144C446.393 21.144 444.622 21.72 443.086 22.872C441.55 23.9813 440.569 25.688 440.142 27.992H455.95C455.822 25.9013 455.054 24.2373 453.646 23C452.238 21.7627 450.489 21.144 448.398 21.144ZM486.41 47V0.919998H494.602V20.12C495.669 18.3707 497.098 17.0053 498.89 16.024C500.725 15 502.815 14.488 505.162 14.488C509.087 14.488 512.117 15.7253 514.25 18.2C516.426 20.6747 517.514 24.3013 517.514 29.08V47H509.386V29.848C509.386 27.1173 508.831 25.0267 507.722 23.576C506.655 22.1253 504.949 21.4 502.602 21.4C500.298 21.4 498.378 22.2107 496.842 23.832C495.349 25.4533 494.602 27.7147 494.602 30.616V47H486.41ZM529.764 10.328C528.27 10.328 527.033 9.88 526.052 8.984C525.113 8.088 524.644 6.95733 524.644 5.592C524.644 4.22667 525.113 3.11733 526.052 2.264C527.033 1.368 528.27 0.919998 529.764 0.919998C531.257 0.919998 532.473 1.368 533.412 2.264C534.393 3.11733 534.884 4.22667 534.884 5.592C534.884 6.95733 534.393 8.088 533.412 8.984C532.473 9.88 531.257 10.328 529.764 10.328ZM525.668 47V15.256H533.86V47H525.668ZM555.85 37.528C554.314 37.528 552.885 37.3573 551.562 37.016L549.194 39.384C549.919 39.768 550.901 40.088 552.138 40.344C553.375 40.6 555.381 40.856 558.154 41.112C562.378 41.496 565.45 42.4987 567.37 44.12C569.29 45.7413 570.25 47.9813 570.25 50.84C570.25 52.7173 569.738 54.488 568.714 56.152C567.69 57.8587 566.111 59.224 563.978 60.248C561.845 61.3147 559.114 61.848 555.786 61.848C551.263 61.848 547.615 60.9947 544.842 59.288C542.069 57.624 540.682 55.1067 540.682 51.736C540.682 48.8773 542.069 46.4027 544.842 44.312C543.989 43.928 543.242 43.5227 542.602 43.096C542.005 42.6693 541.471 42.2213 541.002 41.752V40.28L546.57 34.392C544.095 32.216 542.858 29.4213 542.858 26.008C542.858 23.8747 543.37 21.9333 544.394 20.184C545.461 18.4347 546.954 17.048 548.874 16.024C550.794 15 553.119 14.488 555.85 14.488C557.642 14.488 559.306 14.744 560.842 15.256H572.874V20.248L567.434 20.632C568.287 22.2533 568.714 24.0453 568.714 26.008C568.714 28.1413 568.202 30.0827 567.178 31.832C566.154 33.5813 564.661 34.968 562.698 35.992C560.778 37.016 558.495 37.528 555.85 37.528ZM555.85 31.256C557.514 31.256 558.879 30.808 559.946 29.912C561.055 29.016 561.61 27.736 561.61 26.072C561.61 24.408 561.055 23.128 559.946 22.232C558.879 21.336 557.514 20.888 555.85 20.888C554.101 20.888 552.693 21.336 551.626 22.232C550.559 23.128 550.026 24.408 550.026 26.072C550.026 27.736 550.559 29.016 551.626 29.912C552.693 30.808 554.101 31.256 555.85 31.256ZM548.17 50.904C548.17 52.4827 548.895 53.656 550.346 54.424C551.839 55.2347 553.653 55.64 555.786 55.64C557.834 55.64 559.498 55.2133 560.778 54.36C562.058 53.5493 562.698 52.44 562.698 51.032C562.698 49.88 562.271 48.92 561.418 48.152C560.607 47.384 558.965 46.9147 556.49 46.744C554.741 46.616 553.119 46.424 551.626 46.168C550.389 46.8507 549.493 47.5973 548.938 48.408C548.426 49.2187 548.17 50.0507 548.17 50.904ZM578.848 47V0.919998H587.04V20.12C588.106 18.3707 589.536 17.0053 591.328 16.024C593.162 15 595.253 14.488 597.6 14.488C601.525 14.488 604.554 15.7253 606.688 18.2C608.863 20.6747 609.951 24.3013 609.951 29.08V47H601.824V29.848C601.824 27.1173 601.269 25.0267 600.16 23.576C599.093 22.1253 597.386 21.4 595.04 21.4C592.736 21.4 590.816 22.2107 589.28 23.832C587.786 25.4533 587.04 27.7147 587.04 30.616V47H578.848ZM28.376 144.08V125.456C27.352 126.864 25.9867 128.101 24.28 129.168C22.616 130.235 20.44 130.768 17.752 130.768C14.7653 130.768 12.0987 130.043 9.752 128.592C7.40533 127.141 5.54933 125.157 4.184 122.64C2.81867 120.123 2.136 117.264 2.136 114.064C2.136 110.864 2.81867 108.027 4.184 105.552C5.54933 103.035 7.40533 101.072 9.752 99.664C12.0987 98.2133 14.7653 97.488 17.752 97.488C20.1413 97.488 22.232 97.936 24.024 98.832C25.816 99.728 27.2667 100.987 28.376 102.608L29.272 98.256H36.568V144.08H28.376ZM19.48 123.6C22.1253 123.6 24.28 122.725 25.944 120.976C27.6507 119.184 28.504 116.901 28.504 114.128C28.504 111.355 27.6507 109.093 25.944 107.344C24.28 105.552 22.1253 104.656 19.48 104.656C16.8773 104.656 14.7227 105.531 13.016 107.28C11.3093 109.029 10.456 111.291 10.456 114.064C10.456 116.837 11.3093 119.12 13.016 120.912C14.7227 122.704 16.8773 123.6 19.48 123.6ZM56.814 130.768C52.846 130.768 49.774 129.531 47.598 127.056C45.4647 124.581 44.398 120.955 44.398 116.176V98.256H52.526V115.408C52.526 118.139 53.0807 120.229 54.19 121.68C55.2993 123.131 57.0487 123.856 59.438 123.856C61.6993 123.856 63.5553 123.045 65.006 121.424C66.4993 119.803 67.246 117.541 67.246 114.64V98.256H75.438V130H68.206L67.566 124.624C66.5847 126.501 65.1553 127.995 63.278 129.104C61.4433 130.213 59.2887 130.768 56.814 130.768ZM94.7915 130.768C92.0608 130.768 89.8208 130.341 88.0715 129.488C86.3222 128.592 85.0208 127.419 84.1675 125.968C83.3142 124.517 82.8875 122.917 82.8875 121.168C82.8875 118.224 84.0395 115.835 86.3435 114C88.6475 112.165 92.1035 111.248 96.7115 111.248H104.776V110.48C104.776 108.304 104.157 106.704 102.92 105.68C101.682 104.656 100.146 104.144 98.3115 104.144C96.6475 104.144 95.1968 104.549 93.9595 105.36C92.7222 106.128 91.9542 107.28 91.6555 108.816H83.6555C83.8688 106.512 84.6368 104.507 85.9595 102.8C87.3248 101.093 89.0742 99.792 91.2075 98.896C93.3408 97.9573 95.7302 97.488 98.3755 97.488C102.898 97.488 106.461 98.6187 109.064 100.88C111.666 103.141 112.968 106.341 112.968 110.48V130H105.992L105.224 124.88C104.285 126.587 102.962 127.995 101.256 129.104C99.5915 130.213 97.4368 130.768 94.7915 130.768ZM96.6475 124.368C98.9942 124.368 100.808 123.6 102.088 122.064C103.41 120.528 104.242 118.629 104.584 116.368H97.6075C95.4315 116.368 93.8742 116.773 92.9355 117.584C91.9968 118.352 91.5275 119.312 91.5275 120.464C91.5275 121.701 91.9968 122.661 92.9355 123.344C93.8742 124.027 95.1115 124.368 96.6475 124.368ZM120.785 130V83.92H128.977V130H120.785ZM141.764 93.328C140.27 93.328 139.033 92.88 138.052 91.984C137.113 91.088 136.644 89.9573 136.644 88.592C136.644 87.2267 137.113 86.1173 138.052 85.264C139.033 84.368 140.27 83.92 141.764 83.92C143.257 83.92 144.473 84.368 145.412 85.264C146.393 86.1173 146.884 87.2267 146.884 88.592C146.884 89.9573 146.393 91.088 145.412 91.984C144.473 92.88 143.257 93.328 141.764 93.328ZM137.668 130V98.256H145.86V130H137.668ZM168.554 130C165.226 130 162.559 129.189 160.554 127.568C158.549 125.947 157.546 123.067 157.546 118.928V105.104H152.106V98.256H157.546L158.506 89.744H165.738V98.256H174.314V105.104H165.738V118.992C165.738 120.528 166.058 121.595 166.698 122.192C167.381 122.747 168.533 123.024 170.154 123.024H174.122V130H168.554ZM185.316 144.08L192.676 127.888H190.756L178.404 98.256H187.3L196.196 120.592L205.476 98.256H214.18L194.02 144.08H185.316ZM234.785 144.08V98.256H242.081L242.977 102.8C244.001 101.392 245.345 100.155 247.009 99.088C248.716 98.0213 250.913 97.488 253.601 97.488C256.588 97.488 259.254 98.2133 261.601 99.664C263.948 101.115 265.804 103.099 267.169 105.616C268.534 108.133 269.217 110.992 269.217 114.192C269.217 117.392 268.534 120.251 267.169 122.768C265.804 125.243 263.948 127.205 261.601 128.656C259.254 130.064 256.588 130.768 253.601 130.768C251.212 130.768 249.121 130.32 247.329 129.424C245.537 128.528 244.086 127.269 242.977 125.648V144.08H234.785ZM251.873 123.6C254.476 123.6 256.63 122.725 258.337 120.976C260.044 119.227 260.897 116.965 260.897 114.192C260.897 111.419 260.044 109.136 258.337 107.344C256.63 105.552 254.476 104.656 251.873 104.656C249.228 104.656 247.052 105.552 245.345 107.344C243.681 109.093 242.849 111.355 242.849 114.128C242.849 116.901 243.681 119.184 245.345 120.976C247.052 122.725 249.228 123.6 251.873 123.6ZM276.535 130V98.256H283.831L284.599 104.208C285.751 102.16 287.308 100.539 289.271 99.344C291.276 98.1067 293.623 97.488 296.311 97.488V106.128H294.007C292.215 106.128 290.615 106.405 289.207 106.96C287.799 107.515 286.69 108.475 285.879 109.84C285.111 111.205 284.727 113.104 284.727 115.536V130H276.535ZM316.58 130.768C313.508 130.768 310.734 130.064 308.26 128.656C305.828 127.248 303.886 125.307 302.436 122.832C301.028 120.315 300.324 117.413 300.324 114.128C300.324 110.843 301.049 107.963 302.5 105.488C303.95 102.971 305.892 101.008 308.324 99.6C310.798 98.192 313.572 97.488 316.644 97.488C319.673 97.488 322.404 98.192 324.836 99.6C327.31 101.008 329.252 102.971 330.66 105.488C332.11 107.963 332.836 110.843 332.836 114.128C332.836 117.413 332.11 120.315 330.66 122.832C329.252 125.307 327.31 127.248 324.836 128.656C322.361 130.064 319.609 130.768 316.58 130.768ZM316.58 123.664C318.713 123.664 320.569 122.875 322.148 121.296C323.726 119.675 324.516 117.285 324.516 114.128C324.516 110.971 323.726 108.603 322.148 107.024C320.569 105.403 318.734 104.592 316.644 104.592C314.468 104.592 312.59 105.403 311.012 107.024C309.476 108.603 308.708 110.971 308.708 114.128C308.708 117.285 309.476 119.675 311.012 121.296C312.59 122.875 314.446 123.664 316.58 123.664ZM354.752 130.768C351.765 130.768 349.099 130.043 346.752 128.592C344.405 127.141 342.549 125.157 341.184 122.64C339.819 120.123 339.136 117.264 339.136 114.064C339.136 110.864 339.819 108.027 341.184 105.552C342.549 103.035 344.405 101.072 346.752 99.664C349.099 98.2133 351.765 97.488 354.752 97.488C357.141 97.488 359.232 97.936 361.024 98.832C362.816 99.728 364.267 100.987 365.376 102.608V83.92H373.568V130H366.272L365.376 125.456C364.352 126.864 362.987 128.101 361.28 129.168C359.616 130.235 357.44 130.768 354.752 130.768ZM356.48 123.6C359.125 123.6 361.28 122.725 362.944 120.976C364.651 119.184 365.504 116.901 365.504 114.128C365.504 111.355 364.651 109.093 362.944 107.344C361.28 105.552 359.125 104.656 356.48 104.656C353.877 104.656 351.723 105.531 350.016 107.28C348.309 109.029 347.456 111.291 347.456 114.064C347.456 116.837 348.309 119.12 350.016 120.912C351.723 122.704 353.877 123.6 356.48 123.6ZM393.814 130.768C389.846 130.768 386.774 129.531 384.598 127.056C382.465 124.581 381.398 120.955 381.398 116.176V98.256H389.526V115.408C389.526 118.139 390.081 120.229 391.19 121.68C392.299 123.131 394.049 123.856 396.438 123.856C398.699 123.856 400.555 123.045 402.006 121.424C403.499 119.803 404.246 117.541 404.246 114.64V98.256H412.438V130H405.206L404.566 124.624C403.585 126.501 402.155 127.995 400.278 129.104C398.443 130.213 396.289 130.768 393.814 130.768ZM436.4 130.768C433.157 130.768 430.298 130.064 427.824 128.656C425.349 127.248 423.386 125.285 421.936 122.768C420.528 120.251 419.824 117.371 419.824 114.128C419.824 110.885 420.528 108.005 421.936 105.488C423.386 102.971 425.349 101.008 427.824 99.6C430.298 98.192 433.157 97.488 436.4 97.488C440.453 97.488 443.866 98.5547 446.64 100.688C449.413 102.779 451.184 105.68 451.951 109.392H443.312C442.885 107.856 442.032 106.661 440.752 105.808C439.514 104.912 438.042 104.464 436.336 104.464C434.074 104.464 432.154 105.317 430.576 107.024C428.997 108.731 428.208 111.099 428.208 114.128C428.208 117.157 428.997 119.525 430.576 121.232C432.154 122.939 434.074 123.792 436.336 123.792C438.042 123.792 439.514 123.365 440.752 122.512C442.032 121.659 442.885 120.443 443.312 118.864H451.951C451.184 122.448 449.413 125.328 446.64 127.504C443.866 129.68 440.453 130.768 436.4 130.768ZM472.929 130C469.601 130 466.934 129.189 464.929 127.568C462.924 125.947 461.921 123.067 461.921 118.928V105.104H456.481V98.256H461.921L462.881 89.744H470.113V98.256H478.689V105.104H470.113V118.992C470.113 120.528 470.433 121.595 471.073 122.192C471.756 122.747 472.908 123.024 474.529 123.024H478.497V130H472.929ZM498.843 130.768C496.027 130.768 493.552 130.32 491.419 129.424C489.285 128.485 487.579 127.205 486.299 125.584C485.019 123.963 484.251 122.085 483.995 119.952H492.251C492.507 121.189 493.189 122.256 494.299 123.152C495.451 124.005 496.923 124.432 498.715 124.432C500.507 124.432 501.808 124.069 502.619 123.344C503.472 122.619 503.899 121.787 503.899 120.848C503.899 119.483 503.301 118.565 502.107 118.096C500.912 117.584 499.248 117.093 497.115 116.624C495.749 116.325 494.363 115.963 492.955 115.536C491.547 115.109 490.245 114.576 489.051 113.936C487.899 113.253 486.96 112.4 486.235 111.376C485.509 110.309 485.147 109.008 485.147 107.472C485.147 104.656 486.256 102.288 488.475 100.368C490.736 98.448 493.893 97.488 497.947 97.488C501.701 97.488 504.688 98.3627 506.907 100.112C509.168 101.861 510.512 104.272 510.939 107.344H503.195C502.725 104.997 500.955 103.824 497.883 103.824C496.347 103.824 495.152 104.123 494.299 104.72C493.488 105.317 493.083 106.064 493.083 106.96C493.083 107.899 493.701 108.645 494.939 109.2C496.176 109.755 497.819 110.267 499.867 110.736C502.085 111.248 504.112 111.824 505.947 112.464C507.824 113.061 509.317 113.979 510.427 115.216C511.536 116.411 512.091 118.139 512.091 120.4C512.133 122.363 511.621 124.133 510.555 125.712C509.488 127.291 507.952 128.528 505.947 129.424C503.941 130.32 501.573 130.768 498.843 130.768Z" fill="white"/>
</svg>
